<svg width="91" height="38" fill="none" xmlns="http://www.w3.org/2000/svg"><path d="M26.663 18.986c0 4.22-3.434 7.654-7.653 7.654-4.22 0-7.654-3.434-7.654-7.654V2.09H0v16.896C0 29.47 8.528 38 19.01 38c2.748 0 5.36-.592 7.721-1.647h-.068V18.986z" fill="#FF6953"/><path d="M58.77 5.472C55.359 2.092 50.68 0 45.523 0c-2.705 0-5.277.58-7.605 1.613V19c0-4.218 3.41-7.65 7.605-7.65 4.194 0 7.605 3.432 7.605 7.65 0-5.29 2.164-10.08 5.644-13.528z" fill="#DC7ECF"/><path d="M72.056 0c-5.172 0-9.863 2.091-13.285 5.472a18.964 18.964 0 015.659 13.527c0-4.218 3.422-7.649 7.626-7.649 4.206 0 7.628 3.431 7.628 7.65 0 4.216-3.422 7.649-7.628 7.649-4.204 0-7.626-3.433-7.626-7.65v17.355h-.069A18.766 18.766 0 0072.056 38C82.502 38 91 29.476 91 19 91 8.522 82.502 0 72.056 0z" fill="#FFC341"/><path d="M26.542 19.11v17.37h.068c6.655-2.966 11.307-9.632 11.307-17.368V1.71c-6.692 2.952-11.375 9.638-11.375 17.4z" fill="#C14A56"/><path d="M64.458 35.16V19.077c0-5.305-2.179-10.108-5.687-13.566-3.507 3.458-5.688 8.261-5.688 13.566 0 7.75 4.652 14.432 11.306 17.404h.07v-1.32z" fill="#A65A72"/></svg>