<svg width="91" height="38" viewBox="0 0 91 38" fill="none" xmlns="http://www.w3.org/2000/svg">
<path d="M26.6628 18.9862C26.6628 23.2059 23.2294 26.6399 19.01 26.6399C14.7892 26.6399 11.3558 23.2059 11.3558 18.9862V2.09H0V18.9862C0 29.4694 8.52835 38 19.01 38C21.7576 38 24.3696 37.4085 26.7313 36.353H26.6628V18.9862Z" fill="#FF6953"/>
<path d="M58.7708 5.47174C55.3583 2.09136 50.6792 0 45.5216 0C42.8173 0 40.2454 0.579446 37.9166 1.61336V19C37.9166 14.7821 41.3278 11.3506 45.5216 11.3506C49.716 11.3506 53.1269 14.7821 53.1269 19C53.1269 13.7098 55.2913 8.92028 58.7708 5.47174Z" fill="#DC7ECF"/>
<path d="M72.0562 0C66.8844 0 62.1925 2.09102 58.7709 5.47154C62.2615 8.91942 64.43 13.7093 64.43 18.9991C64.43 14.7813 67.8516 11.3502 72.0562 11.3502C76.2623 11.3502 79.6837 14.7813 79.6837 18.9991C79.6837 23.2165 76.2623 26.649 72.0562 26.649C67.8516 26.649 64.43 23.2165 64.43 18.9991V36.354H64.361C66.7145 37.4087 69.317 38 72.0562 38C82.5016 38 91 29.4761 91 18.9991C91 8.52286 82.5016 0 72.0562 0Z" fill="#FFC341"/>
<path d="M26.5416 19.1102V36.48H26.6102C33.2647 33.5136 37.9166 26.8477 37.9166 19.1123V19.1102V1.70999C31.2252 4.6615 26.5416 11.3483 26.5416 19.1102Z" fill="#C14A56"/>
<path d="M64.4584 35.1606V19.0756C64.4584 13.7712 62.2791 8.96788 58.771 5.51001C55.2643 8.96788 53.0834 13.7712 53.0834 19.0756C53.0834 26.8263 57.7353 33.5077 64.389 36.48H64.4584V35.1606Z" fill="#A65A72"/>
</svg>
